# xmcd
#
# Track frame offsets:
#	150
#	12477
#	27284
#	64097
#	97883
#	113533
#	125598
#	137424
#	150374
#	165374
#
# Disc length: 2369 seconds
#
# Revision: 0
# Processed by: cddbd v1.5PL3 Copyright (c) Steve Scherf et al.
# Submitted via: dBpowerAMP V4.0
#
DISCID=6d093f0a
DTITLE=Big Bill Broonzy - Blues Legends In London
DYEAR=2003
DGENRE=Blues
TTITLE0=It Feels So Good
TTITLE1=Southbound Train
TTITLE2=Southern Saga/Joe Turner Blues
TTITLE3=When The Sun Goes Down/Going Down This Road Feeling Bad
TTITLE4=Saturday Evening
TTITLE5=Glory Of Love
TTITLE6=St. Louis Blues
TTITLE7=Mindin' My Own Business
TTITLE8=When Do I Get T Be Called A Man
TTITLE9=Partnership Woman
EXTD=
EXTT0=
EXTT1=
EXTT2=
EXTT3=
EXTT4=
EXTT5=
EXTT6=
EXTT7=
EXTT8=
EXTT9=
PLAYORDER=
